<?xml version="1.0" encoding="utf-8"?>
<!-- Generator: Adobe Illustrator 16.0.4, SVG Export Plug-In . SVG Version: 6.00 Build 0)  -->
<!DOCTYPE svg PUBLIC "-//W3C//DTD SVG 1.1//EN" "http://www.w3.org/Graphics/SVG/1.1/DTD/svg11.dtd">
<svg version="1.1" id="Capa_1" xmlns="http://www.w3.org/2000/svg" xmlns:xlink="http://www.w3.org/1999/xlink" x="0px" y="0px"
	 width="216px" height="146px" viewBox="0 0 216 146" enable-background="new 0 0 216 146" xml:space="preserve">
<path d="M172.691,23.953c-2.062-2.064-4.508-3.096-7.332-3.096h-10.428v-7.822c0-3.584-1.277-6.653-3.83-9.206
	c-2.554-2.553-5.621-3.83-9.207-3.83h-5.213c-3.586,0-6.654,1.277-9.207,3.83c-2.554,2.553-3.83,5.622-3.83,9.206v7.822H92.359
	v-7.822c0-3.584-1.277-6.653-3.83-9.206c-2.553-2.553-5.622-3.83-9.207-3.83h-5.214c-3.585,0-6.654,1.277-9.207,3.83
	c-2.553,2.553-3.83,5.622-3.83,9.206v7.822H50.643c-2.825,0-5.269,1.032-7.333,3.096s-3.096,4.509-3.096,7.333v104.287
	c0,2.823,1.032,5.267,3.096,7.332c2.064,2.064,4.508,3.096,7.333,3.096h114.714c2.824,0,5.27-1.032,7.332-3.096
	c2.064-2.064,3.096-4.509,3.096-7.332V31.286C175.785,28.461,174.754,26.017,172.691,23.953z M134.073,13.036
	c0-0.761,0.243-1.386,0.731-1.874c0.488-0.488,1.113-0.733,1.875-0.733h5.213c0.762,0,1.385,0.244,1.875,0.733
	c0.488,0.489,0.732,1.114,0.732,1.874V36.5c0,0.761-0.244,1.385-0.732,1.874c-0.49,0.488-1.113,0.733-1.875,0.733h-5.213
	c-0.762,0-1.387-0.244-1.875-0.733s-0.731-1.113-0.731-1.874V13.036z M71.501,13.036c0-0.761,0.244-1.386,0.733-1.874
	c0.489-0.488,1.113-0.733,1.874-0.733h5.214c0.761,0,1.386,0.244,1.874,0.733c0.488,0.489,0.733,1.114,0.733,1.874V36.5
	c0,0.761-0.244,1.386-0.733,1.874c-0.489,0.488-1.113,0.733-1.874,0.733h-5.214c-0.761,0-1.386-0.244-1.874-0.733
	c-0.488-0.489-0.733-1.113-0.733-1.874V13.036z M165.357,135.572H50.643V52.143h114.714V135.572z"/>
</svg>
