<?xml version="1.0" encoding="utf-8"?>
<!-- Generator: Adobe Illustrator 16.0.4, SVG Export Plug-In . SVG Version: 6.00 Build 0)  -->
<!DOCTYPE svg PUBLIC "-//W3C//DTD SVG 1.1//EN" "http://www.w3.org/Graphics/SVG/1.1/DTD/svg11.dtd">
<svg version="1.1" id="Capa_1" xmlns="http://www.w3.org/2000/svg" xmlns:xlink="http://www.w3.org/1999/xlink" x="0px" y="0px"
	 width="216px" height="146px" viewBox="0 0 216 146" enable-background="new 0 0 216 146" xml:space="preserve">
<path d="M172.691,23.953c-2.062-2.064-4.508-3.096-7.332-3.096h-10.428v-7.822c0-3.584-1.277-6.653-3.83-9.206
	c-2.554-2.553-5.621-3.83-9.207-3.83h-5.213c-3.586,0-6.654,1.277-9.207,3.83c-2.554,2.553-3.83,5.622-3.83,9.206v7.822H92.359
	v-7.822c0-3.584-1.277-6.653-3.83-9.206c-2.553-2.553-5.622-3.83-9.207-3.83h-5.214c-3.585,0-6.654,1.277-9.207,3.83
	c-2.553,2.553-3.83,5.622-3.83,9.206v7.822H50.643c-2.825,0-5.269,1.032-7.333,3.096s-3.096,4.509-3.096,7.333v104.287
	c0,2.823,1.032,5.267,3.096,7.332c2.064,2.064,4.508,3.096,7.333,3.096h114.714c2.824,0,5.27-1.032,7.332-3.096
	c2.064-2.064,3.096-4.509,3.096-7.332V31.286C175.785,28.461,174.754,26.017,172.691,23.953z M74.107,135.572H50.643v-23.465h23.464
	V135.572z M74.107,106.893H50.643V80.823h23.464V106.893z M74.107,75.607H50.643V52.143h23.464V75.607z M72.275,38.333
	c-0.516-0.516-0.774-1.126-0.774-1.833V13.036c0-0.706,0.258-1.317,0.774-1.833c0.516-0.516,1.126-0.774,1.833-0.774h5.214
	c0.706,0,1.317,0.258,1.833,0.774c0.516,0.516,0.774,1.127,0.774,1.833V36.5c0,0.707-0.259,1.317-0.774,1.833
	c-0.516,0.516-1.126,0.774-1.833,0.774h-5.214C73.402,39.107,72.791,38.849,72.275,38.333z M105.393,135.572H79.321v-23.465h26.072
	V135.572z M105.393,106.893H79.321V80.823h26.072V106.893z M105.393,75.607H79.321V52.143h26.072V75.607z M136.68,135.572h-26.072
	v-23.465h26.072V135.572z M136.68,106.893h-26.072V80.823h26.072V106.893z M136.68,75.607h-26.072V52.143h26.072V75.607z
	 M134.846,38.333c-0.515-0.516-0.772-1.126-0.772-1.833V13.036c0-0.706,0.257-1.317,0.772-1.833
	c0.516-0.516,1.127-0.774,1.834-0.774h5.213c0.707,0,1.318,0.258,1.834,0.774c0.516,0.516,0.773,1.127,0.773,1.833V36.5
	c0,0.707-0.258,1.317-0.773,1.833s-1.127,0.774-1.834,0.774h-5.213C135.973,39.107,135.361,38.849,134.846,38.333z M165.357,135.572
	h-23.465v-23.465h23.465V135.572z M165.357,106.893h-23.465V80.823h23.465V106.893z M165.357,75.607h-23.465V52.143h23.465V75.607z"
	/>
</svg>
