<?xml version="1.0" encoding="utf-8"?>
<!-- Generator: Adobe Illustrator 16.0.4, SVG Export Plug-In . SVG Version: 6.00 Build 0)  -->
<!DOCTYPE svg PUBLIC "-//W3C//DTD SVG 1.1//EN" "http://www.w3.org/Graphics/SVG/1.1/DTD/svg11.dtd">
<svg version="1.1" id="Capa_1" xmlns="http://www.w3.org/2000/svg" xmlns:xlink="http://www.w3.org/1999/xlink" x="0px" y="0px"
	 width="216px" height="146px" viewBox="0 0 216 146" enable-background="new 0 0 216 146" xml:space="preserve">
<path d="M177.171,19.472c-2.553-2.553-5.622-3.829-9.206-3.829H48.036c-3.585,0-6.654,1.276-9.207,3.829
	C36.276,22.025,35,25.094,35,28.679v88.644c0,3.585,1.276,6.652,3.829,9.205c2.553,2.555,5.622,3.83,9.207,3.83h119.929
	c3.584,0,6.653-1.275,9.206-3.83c2.554-2.553,3.829-5.621,3.829-9.205V28.679C181,25.094,179.725,22.025,177.171,19.472z
	 M170.57,117.321c0,0.706-0.258,1.317-0.774,1.833s-1.127,0.773-1.832,0.773H48.035c-0.706,0-1.317-0.257-1.833-0.773
	c-0.516-0.516-0.774-1.127-0.774-1.833V54.75c1.738,1.955,3.612,3.748,5.622,5.377c14.557,11.189,26.126,20.368,34.708,27.538
	c2.77,2.336,5.024,4.155,6.762,5.459s4.087,2.62,7.047,3.951s5.744,1.995,8.351,1.995H108h0.081c2.606,0,5.392-0.664,8.351-1.995
	c2.961-1.331,5.311-2.647,7.049-3.951c1.737-1.304,3.992-3.123,6.762-5.459c8.582-7.17,20.15-16.349,34.707-27.538
	c2.01-1.629,3.885-3.422,5.621-5.377V117.321z M170.57,30.797v0.896c0,3.204-1.262,6.776-3.787,10.713
	c-2.525,3.938-5.256,7.075-8.188,9.41c-10.484,8.257-21.373,16.865-32.672,25.827c-0.326,0.271-1.277,1.073-2.852,2.403
	c-1.574,1.331-2.824,2.351-3.748,3.056c-0.924,0.707-2.131,1.562-3.625,2.566s-2.865,1.752-4.114,2.24s-2.417,0.732-3.503,0.732H108
	h-0.082c-1.086,0-2.253-0.244-3.503-0.732c-1.249-0.488-2.621-1.236-4.114-2.24c-1.493-1.004-2.702-1.859-3.625-2.566
	c-0.923-0.705-2.173-1.725-3.748-3.056c-1.575-1.33-2.526-2.132-2.852-2.403c-11.297-8.962-22.187-17.57-32.67-25.827
	c-7.985-6.3-11.977-14.013-11.977-23.138c0-0.706,0.258-1.317,0.774-1.833c0.516-0.516,1.127-0.774,1.833-0.774h119.929
	c0.434,0.244,0.814,0.312,1.141,0.204c0.326-0.11,0.57,0.094,0.732,0.61c0.163,0.516,0.312,0.76,0.448,0.733
	c0.136-0.027,0.218,0.312,0.245,1.019c0.025,0.706,0.039,1.061,0.039,1.061V30.797z"/>
</svg>
