<?xml version="1.0" encoding="utf-8"?>
<!-- Generator: Adobe Illustrator 16.0.4, SVG Export Plug-In . SVG Version: 6.00 Build 0)  -->
<!DOCTYPE svg PUBLIC "-//W3C//DTD SVG 1.1//EN" "http://www.w3.org/Graphics/SVG/1.1/DTD/svg11.dtd">
<svg version="1.1" id="Capa_1" xmlns="http://www.w3.org/2000/svg" xmlns:xlink="http://www.w3.org/1999/xlink" x="0px" y="0px"
	 width="216px" height="146px" viewBox="0 0 216 146" enable-background="new 0 0 216 146" xml:space="preserve">
<path d="M152.646,70.067c-1.521-1.521-3.367-2.281-5.541-2.281H144.5V52.142c0-9.994-3.585-18.575-10.754-25.745
	c-7.17-7.17-15.751-10.755-25.746-10.755s-18.577,3.585-25.746,10.755C75.084,33.567,71.5,42.148,71.5,52.142v15.644h-2.607
	c-2.172,0-4.019,0.76-5.54,2.281c-1.521,1.52-2.281,3.367-2.281,5.541v46.929c0,2.172,0.76,4.019,2.281,5.54
	c1.521,1.52,3.368,2.281,5.54,2.281h78.214c2.174,0,4.02-0.76,5.541-2.281c1.52-1.521,2.281-3.368,2.281-5.54V75.607
	C154.93,73.435,154.168,71.588,152.646,70.067z M128.857,67.786H87.143V52.142c0-5.757,2.037-10.673,6.111-14.746
	c4.074-4.074,8.989-6.11,14.747-6.11s10.673,2.036,14.746,6.11c4.073,4.073,6.11,8.989,6.11,14.746V67.786z"/>
</svg>
